<svg width="266" height="68" viewBox="0 0 266 68" fill="none" xmlns="http://www.w3.org/2000/svg">
<path d="M152 63C152 65.2091 150.209 67 148 67L33 67C30.7909 67 29 65.2091 29 63L152 63Z" fill="url(#paint0_linear_0_1)"/>
<path d="M151 4L49 4C46.7909 4 45 2.20914 45 2.38419e-07L147 2.38419e-07C149.209 2.38419e-07 151 1.79086 151 4Z" fill="url(#paint1_linear_0_1)"/>
<ellipse cx="37.5" cy="34" rx="34.5" ry="34" fill="white"/>
<path d="M9.01449 7.94916C8.5576 7.58053 7.88213 7.68244 7.5666 8.17748C4.8414 12.4531 2.79189 17.1896 1.52531 22.1467C0.167738 27.4599 -0.263121 32.9198 0.257945 38.207C0.779005 43.4941 2.24153 48.5025 4.55995 52.9389C6.70136 57.0366 9.53324 60.5705 12.9114 63.3664C13.362 63.7394 14.0325 63.6233 14.35 63.132L15.3462 61.5906C15.6285 61.1537 15.5276 60.5748 15.1261 60.2441C12.0434 57.7044 9.46034 54.488 7.50964 50.7552C5.40899 46.7355 4.08385 42.1976 3.61173 37.4071C3.13961 32.6165 3.53 27.6695 4.76005 22.8554C5.91384 18.3397 7.78468 14.0261 10.2738 10.1357C10.5531 9.6993 10.4662 9.12048 10.063 8.79512L9.01449 7.94916Z" fill="url(#paint2_angular_0_1)"/>
<path d="M75.2031 47.0119C75.7282 47.1777 76.2898 46.8879 76.4457 46.3597C78.9483 37.8779 78.7944 28.8776 76.0082 20.7014C75.8227 20.1569 75.2091 19.8971 74.6822 20.1279L69.3347 22.4707C68.8496 22.6832 68.6159 23.2367 68.7853 23.7385C70.9721 30.2157 71.1046 37.3314 69.1641 44.0525C69.0105 44.5847 69.301 45.1487 69.8292 45.3155L75.2031 47.0119Z" fill="white"/>
<path d="M7 34C7 25.7783 10.1191 17.8933 15.9473 12.0797C21.7755 6.26606 29.6802 3 37.9224 3C46.1647 3 54.0694 6.26606 59.8976 12.0797C65.7258 17.8933 69 25.7783 69 34L37.9224 34H7Z" fill="url(#paint3_angular_0_1)"/>
<path d="M34 32C34 29.2386 36.2386 27 39 27H54.0455C54.5726 27 55 27.4361 55 27.9633C55 30.1724 53.2091 32 51 32H34Z" fill="white"/>
<path d="M34.0243 10.7329C35.5824 9.16687 38.1151 9.16046 39.6811 10.7186L53.8122 24.7784C55.3782 26.3365 55.3847 28.8692 53.8265 30.4352L52.6475 31.6202L32.8453 11.9179L34.0243 10.7329Z" fill="white"/>
<path d="M40.0953 12.5652L19.4142 38.327L14.8453 34.6591L33.6483 11.2368C34.6855 9.94473 36.5737 9.73817 37.8658 10.7754L40.0953 12.5652Z" fill="white"/>
<path d="M7 34C7 42.2217 10.2661 50.1067 16.0797 55.9203C21.8933 61.7339 29.7783 65 38 65C46.2217 65 54.1067 61.7339 59.9203 55.9203C65.7339 50.1067 69 42.2217 69 34L38 34H7Z" fill="url(#paint4_angular_0_1)"/>
<path d="M34 36C34 38.7614 36.2386 41 39 41H54.0455C54.5726 41 55 40.5639 55 40.0367C55 37.8276 53.2091 36 51 36H34Z" fill="white"/>
<path d="M34.179 57.1644C35.7371 58.7305 38.2698 58.7369 39.8358 57.1787L53.9669 43.119C55.533 41.5608 55.5394 39.0282 53.9812 37.4621L52.8022 36.2772L33 55.9794L34.179 57.1644Z" fill="white"/>
<path d="M40.25 55.3322L20.09 30.2194L15.521 33.8872L33.803 56.6606C34.8402 57.9526 36.7284 58.1592 38.0205 57.122L40.25 55.3322Z" fill="white"/>
<path d="M232 53C232 55.2091 230.209 57 228 57L64 57C64 54.7909 65.7909 53 68 53L232 53Z" fill="url(#paint5_linear_0_1)"/>
<path d="M232 14L67 14C64.7909 14 63 12.2091 63 10L228 10C230.209 10 232 11.7909 232 14V14Z" fill="url(#paint6_linear_0_1)"/>
<path d="M72.6859 25.2227V21.3906H87.9086V25.2227H82.2836V46H78.3461V25.2227H72.6859ZM91.6422 40.6914V31.7617C91.6891 30.6133 92.2164 29.5 93.2242 28.4219C94.4664 27.1797 95.9664 26.5469 97.7242 26.5234V30.0391C96.8102 30.0391 96.1187 30.4492 95.65 31.2695C95.4859 31.5508 95.4039 31.8086 95.4039 32.043V34.1523H102.084V32.0781C102.084 31.0938 101.545 30.4492 100.466 30.1445C100.162 30.0508 99.857 30.0039 99.5523 30.0039V26.5234C101.216 26.5234 102.693 27.0977 103.982 28.2461C105.06 29.2773 105.611 30.4375 105.634 31.7266V37.7734H95.4039V40.6914C95.4039 41.3008 95.7437 41.8047 96.4234 42.2031C96.8453 42.4375 97.3023 42.5547 97.7945 42.5547V46C95.6148 46 93.8922 45.1211 92.6266 43.3633C91.9703 42.4023 91.6422 41.5117 91.6422 40.6914ZM99.5523 46V42.5195C100.912 42.5195 101.849 41.9453 102.365 40.7969C102.435 40.6328 102.494 40.4805 102.541 40.3398L105.67 41.4648C105.248 43.0586 104.298 44.2891 102.822 45.1562C101.814 45.7188 100.724 46 99.5523 46ZM110.282 46V26.5234H114.079V28.9492C114.735 27.918 115.72 27.1797 117.032 26.7344C117.641 26.5234 118.239 26.418 118.825 26.418H119.739L118.86 30.1094C117.477 30.1328 116.27 30.8008 115.239 32.1133C114.466 33.1211 114.079 34.1641 114.079 35.2422V46H110.282ZM123.016 41.4648V39.7422C123.039 38.2188 123.66 37.0938 124.879 36.3672C125.207 36.1797 126.59 35.7109 129.027 34.9609C131.605 34.1641 132.895 33.4609 132.895 32.8516V32.1133C132.895 31.8086 132.836 31.5156 132.719 31.2344C132.367 30.3672 131.664 29.9336 130.609 29.9336V26.4883C132.297 26.4883 133.703 27.0391 134.828 28.1406C135.953 29.2422 136.516 30.4961 136.516 31.9023V41.3594C136.539 42.0625 136.855 42.4375 137.465 42.4844V46C136.223 46 135.191 45.6016 134.371 44.8047C133.434 45.5781 132.191 45.9766 130.645 46V42.5195C130.879 42.5195 131.102 42.4961 131.312 42.4492C132.367 42.2148 132.895 41.5352 132.895 40.4102V36.9297C132.332 37.2344 131.348 37.5742 129.941 37.9492C127.926 38.4883 126.824 38.8281 126.637 38.9688C126.379 39.1562 126.238 39.4844 126.215 39.9531V40.6914C126.238 41.8867 127.117 42.4961 128.852 42.5195V46C127.328 46 126.016 45.6016 124.914 44.8047C123.648 43.8906 123.016 42.7773 123.016 41.4648ZM123.297 31.375C123.297 30.2266 123.754 29.1836 124.668 28.2461C125.84 27.0742 127.234 26.4883 128.852 26.4883V29.9336C128.594 29.9336 128.336 29.9805 128.078 30.0742C127.047 30.4258 126.531 31.2695 126.531 32.6055L123.297 31.375ZM141.761 45.9648V21.3906H154.558V25.2578H145.698V31.7969H151.253V35.7344H145.698V45.9648H141.761ZM158.748 40.6914V31.7969C158.748 30.6484 159.264 29.5352 160.295 28.457C161.514 27.168 163.049 26.5234 164.901 26.5234V30.1445C163.682 30.1445 162.897 30.6484 162.545 31.6562C162.475 31.8672 162.44 32.0781 162.44 32.2891V40.1992C162.44 41.0898 162.85 41.7344 163.67 42.1328C164.045 42.3203 164.467 42.4141 164.936 42.4141V46.0352C162.662 46.0352 160.905 45.1211 159.662 43.293C159.053 42.3789 158.748 41.5117 158.748 40.6914ZM166.483 46.0352V42.4141C167.608 42.4141 168.346 41.9336 168.698 40.9727C168.791 40.7148 168.838 40.4805 168.838 40.2695V32.2891C168.838 31.3047 168.381 30.6484 167.467 30.3203C167.162 30.2031 166.823 30.1445 166.448 30.1445V26.5234C168.651 26.5234 170.35 27.4141 171.545 29.1953C172.155 30.1094 172.459 30.9766 172.459 31.7969V40.6914C172.459 41.8398 171.967 42.9648 170.983 44.0664C169.787 45.3555 168.287 46.0117 166.483 46.0352ZM177.072 46V26.5234H180.869V28.9492C181.525 27.918 182.509 27.1797 183.822 26.7344C184.431 26.5234 185.029 26.418 185.615 26.418H186.529L185.65 30.1094C184.267 30.1328 183.06 30.8008 182.029 32.1133C181.255 33.1211 180.869 34.1641 180.869 35.2422V46H177.072ZM189.348 30.25V26.6289H191.739V21.0039H195.466V26.6289H197.786V30.2852H195.466L195.501 40.0234C195.548 41.4297 196.251 42.1445 197.61 42.168H198.348L199.192 46H197.54C194.563 46 192.747 44.8633 192.091 42.5898C191.856 41.7695 191.739 40.7969 191.739 39.6719V30.25H189.348ZM202.715 46V26.5234H206.512V28.9492C207.168 27.918 208.152 27.1797 209.465 26.7344C210.074 26.5234 210.672 26.418 211.258 26.418H212.172L211.293 30.1094C209.91 30.1328 208.703 30.8008 207.672 32.1133C206.898 33.1211 206.512 34.1641 206.512 35.2422V46H202.715ZM215.765 40.6914V31.7617C215.812 30.6133 216.339 29.5 217.347 28.4219C218.589 27.1797 220.089 26.5469 221.847 26.5234V30.0391C220.933 30.0391 220.241 30.4492 219.773 31.2695C219.609 31.5508 219.527 31.8086 219.527 32.043V34.1523H226.206V32.0781C226.206 31.0938 225.667 30.4492 224.589 30.1445C224.284 30.0508 223.98 30.0039 223.675 30.0039V26.5234C225.339 26.5234 226.816 27.0977 228.105 28.2461C229.183 29.2773 229.734 30.4375 229.757 31.7266V37.7734H219.527V40.6914C219.527 41.3008 219.866 41.8047 220.546 42.2031C220.968 42.4375 221.425 42.5547 221.917 42.5547V46C219.737 46 218.015 45.1211 216.749 43.3633C216.093 42.4023 215.765 41.5117 215.765 40.6914ZM223.675 46V42.5195C225.034 42.5195 225.972 41.9453 226.487 40.7969C226.558 40.6328 226.616 40.4805 226.663 40.3398L229.792 41.4648C229.37 43.0586 228.421 44.2891 226.945 45.1562C225.937 45.7188 224.847 46 223.675 46ZM233.631 40.8672L237.112 40.2344C237.112 41.1484 237.592 41.8398 238.553 42.3086C238.975 42.5195 239.385 42.625 239.784 42.625V46.1758C237.299 46.1758 235.506 45.2969 234.405 43.5391C233.889 42.6953 233.631 41.8047 233.631 40.8672ZM233.807 31.9375C233.807 29.7812 234.803 28.1758 236.795 27.1211C237.756 26.6289 238.717 26.3828 239.678 26.3828V29.8633C238.553 29.8633 237.803 30.3086 237.428 31.1992C237.334 31.457 237.288 31.7031 237.288 31.9375C237.288 32.6406 237.897 33.2617 239.116 33.8008C240.147 34.2227 241.717 34.6797 243.827 35.1719C245.444 35.5 246.592 36.332 247.272 37.668C247.623 38.3945 247.799 39.1914 247.799 40.0586C247.799 42.3789 246.862 44.0898 244.987 45.1914C243.909 45.8477 242.678 46.1758 241.295 46.1758V42.6602C242.233 42.6602 243.006 42.3438 243.616 41.7109C243.991 41.2656 244.178 40.7734 244.178 40.2344C244.178 39.4141 243.264 38.7227 241.436 38.1602C241.061 38.043 240.475 37.8789 239.678 37.668C238.483 37.3867 237.639 37.1523 237.147 36.9648C235.413 36.1914 234.358 35.0547 233.983 33.5547C233.866 33.0625 233.807 32.5234 233.807 31.9375ZM241.26 29.8633V26.3828C243.323 26.3828 244.987 27.1445 246.252 28.668C247.049 29.6523 247.448 30.6836 247.448 31.7617L243.967 32.3594C243.967 31.1641 243.323 30.3789 242.034 30.0039C241.752 29.9102 241.495 29.8633 241.26 29.8633ZM251.005 40.8672L254.486 40.2344C254.486 41.1484 254.966 41.8398 255.927 42.3086C256.349 42.5195 256.759 42.625 257.158 42.625V46.1758C254.673 46.1758 252.88 45.2969 251.779 43.5391C251.263 42.6953 251.005 41.8047 251.005 40.8672ZM251.181 31.9375C251.181 29.7812 252.177 28.1758 254.17 27.1211C255.13 26.6289 256.091 26.3828 257.052 26.3828V29.8633C255.927 29.8633 255.177 30.3086 254.802 31.1992C254.709 31.457 254.662 31.7031 254.662 31.9375C254.662 32.6406 255.271 33.2617 256.49 33.8008C257.521 34.2227 259.091 34.6797 261.201 35.1719C262.818 35.5 263.966 36.332 264.646 37.668C264.998 38.3945 265.173 39.1914 265.173 40.0586C265.173 42.3789 264.236 44.0898 262.361 45.1914C261.283 45.8477 260.052 46.1758 258.67 46.1758V42.6602C259.607 42.6602 260.38 42.3438 260.99 41.7109C261.365 41.2656 261.552 40.7734 261.552 40.2344C261.552 39.4141 260.638 38.7227 258.81 38.1602C258.435 38.043 257.849 37.8789 257.052 37.668C255.857 37.3867 255.013 37.1523 254.521 36.9648C252.787 36.1914 251.732 35.0547 251.357 33.5547C251.24 33.0625 251.181 32.5234 251.181 31.9375ZM258.634 29.8633V26.3828C260.697 26.3828 262.361 27.1445 263.627 28.668C264.423 29.6523 264.822 30.6836 264.822 31.7617L261.341 32.3594C261.341 31.1641 260.697 30.3789 259.408 30.0039C259.127 29.9102 258.869 29.8633 258.634 29.8633Z" fill="url(#paint7_linear_0_1)"/>
<defs>
<linearGradient id="paint0_linear_0_1" x1="90.5" y1="67" x2="90.5" y2="63" gradientUnits="userSpaceOnUse">
<stop offset="0.26"/>
<stop offset="1" stop-color="#A9C4FF"/>
</linearGradient>
<linearGradient id="paint1_linear_0_1" x1="98" y1="4" x2="98" y2="2.38419e-07" gradientUnits="userSpaceOnUse">
<stop offset="0.26"/>
<stop offset="1" stop-color="#A9C4FF"/>
</linearGradient>
<radialGradient id="paint2_angular_0_1" cx="0" cy="0" r="1" gradientUnits="userSpaceOnUse" gradientTransform="translate(35.9621 29.6913) rotate(109.591) scale(41.3104 35.1766)">
<stop offset="0.03" stop-color="#0A0707"/>
<stop offset="0.915" stop-color="#357FD3"/>
</radialGradient>
<radialGradient id="paint3_angular_0_1" cx="0" cy="0" r="1" gradientUnits="userSpaceOnUse" gradientTransform="translate(58.4737 34) rotate(-164.781) scale(74.284 74.1242)">
<stop offset="0.204779"/>
<stop offset="0.431439" stop-color="#2DB8FE"/>
<stop offset="0.661092" stop-color="#2DB9FF"/>
</radialGradient>
<radialGradient id="paint4_angular_0_1" cx="0" cy="0" r="1" gradientUnits="userSpaceOnUse" gradientTransform="translate(58.5 34) rotate(164.745) scale(74.1114)">
<stop offset="0.204779"/>
<stop offset="0.431439" stop-color="#2DB8FE"/>
<stop offset="0.661092" stop-color="#2DB9FF"/>
</radialGradient>
<linearGradient id="paint5_linear_0_1" x1="148" y1="57" x2="148" y2="53" gradientUnits="userSpaceOnUse">
<stop offset="0.26"/>
<stop offset="1" stop-color="#A9C4FF"/>
</linearGradient>
<linearGradient id="paint6_linear_0_1" x1="151.43" y1="14.5" x2="151.43" y2="10.5" gradientUnits="userSpaceOnUse">
<stop offset="0.26"/>
<stop offset="1" stop-color="#A9C4FF"/>
</linearGradient>
<linearGradient id="paint7_linear_0_1" x1="169" y1="9" x2="169" y2="71" gradientUnits="userSpaceOnUse">
<stop offset="0.26"/>
<stop offset="1" stop-color="#A9C4FF"/>
</linearGradient>
</defs>
</svg>
