<svg width="80" height="80" viewBox="0 0 80 80" fill="none" xmlns="http://www.w3.org/2000/svg">
<circle cx="40" cy="40" r="40" fill="url(#paint0_angular_0_1)"/>
<circle cx="40.5" cy="39.5" r="34.5" fill="white"/>
<path d="M5.2999 50.3203C4.8046 50.5111 4.54344 51.0562 4.7183 51.5574C6.65551 57.1099 9.75481 62.1095 13.8003 66.1988C18.0626 70.5072 23.259 73.6877 28.9812 75.4904C34.7034 77.2931 40.7956 77.6689 46.7788 76.5883C52.4584 75.5625 57.8929 73.2509 62.6986 69.8221C63.1313 69.5133 63.2325 68.9162 62.9369 68.4744L60.1117 64.2511C59.7929 63.7747 59.1406 63.6644 58.6712 63.9935C54.7821 66.7205 50.4018 68.5623 45.8281 69.3884C40.9163 70.2755 35.9152 69.967 31.2178 68.4871C26.5203 67.0073 22.2545 64.3963 18.7556 60.8596C15.4989 57.5676 12.9891 53.557 11.3935 49.1044C11.1998 48.564 10.6021 48.2775 10.0665 48.4838L5.2999 50.3203Z" fill="white"/>
<path d="M7.95889 54.2179C7.50213 54.4704 7.31512 55.0324 7.54216 55.5023C9.68423 59.9359 12.6117 63.8641 16.1749 67.0811C19.9608 70.4991 24.3884 73.0456 29.1987 74.5716C34.0089 76.0976 39.1053 76.5724 44.1895 75.9683C48.9762 75.3996 53.6616 73.8854 58.0033 71.5071C58.4611 71.2563 58.6353 70.6902 58.4101 70.2193L57.6788 68.69C57.4272 68.1639 56.7813 67.965 56.268 68.2417C52.3945 70.3297 48.2244 71.6616 43.9659 72.1676C39.3592 72.7149 34.7416 72.2847 30.3832 70.902C26.0248 69.5194 22.0131 67.2121 18.5828 64.1151C15.4132 61.2535 12.7988 57.7707 10.8679 53.8433C10.6106 53.32 9.96917 53.1066 9.4588 53.3888L7.95889 54.2179Z" fill="url(#paint1_angular_0_1)"/>
<path d="M10 39C10 30.7783 13.2661 22.8933 19.0797 17.0797C24.8933 11.2661 32.7783 8 41 8C49.2217 8 57.1067 11.2661 62.9203 17.0797C68.7339 22.8933 72 30.7783 72 39L41 39H10Z" fill="url(#paint2_angular_0_1)"/>
<path d="M37 37C37 34.2386 39.2386 32 42 32H57.0455C57.5726 32 58 32.4361 58 32.9633C58 35.1724 56.2091 37 54 37H37Z" fill="white"/>
<path d="M37.179 15.8356C38.7371 14.2695 41.2698 14.2631 42.8358 15.8213L56.9669 29.881C58.533 31.4392 58.5394 33.9718 56.9812 35.5379L55.8022 36.7228L36 17.0206L37.179 15.8356Z" fill="white"/>
<path d="M43.25 17.6678L22.5689 43.4297L18 39.7618L36.803 16.3394C37.8402 15.0474 39.7284 14.8408 41.0205 15.878L43.25 17.6678Z" fill="white"/>
<path d="M72 39C72 43.071 71.1982 47.1021 69.6403 50.8632C68.0824 54.6243 65.7989 58.0417 62.9203 60.9203C60.0417 63.7989 56.6243 66.0824 52.8632 67.6403C49.1021 69.1982 45.071 70 41 70C36.929 70 32.8979 69.1982 29.1368 67.6403C25.3757 66.0824 21.9583 63.7989 19.0797 60.9203C16.2011 58.0417 13.9176 54.6243 12.3597 50.8632C10.8018 47.1021 10 43.071 10 39L41 39H72Z" fill="url(#paint3_angular_0_1)"/>
<path d="M71 53L24 53C22.3431 53 21 51.6569 21 50L71 50V53Z" fill="white"/>
<path d="M67 59L31 59C29.3431 59 28 57.6569 28 56L67 56V59Z" fill="white"/>
<path d="M63 65H38C36.3431 65 35 63.6569 35 62L63 62V65Z" fill="white"/>
<path d="M21.9435 42.8057V41.8477H25.7491V42.8057H24.3429V48H23.3585V42.8057H21.9435ZM26.6034 46.8662V46.4355C26.6093 46.0547 26.7646 45.7734 27.0692 45.5918C27.1513 45.5449 27.497 45.4277 28.1063 45.2402C28.7509 45.041 29.0731 44.8652 29.0731 44.7129V44.5283C29.0731 44.4521 29.0585 44.3789 29.0292 44.3086C28.9413 44.0918 28.7655 43.9834 28.5019 43.9834V43.1221C28.9237 43.1221 29.2753 43.2598 29.5565 43.5352C29.8378 43.8105 29.9784 44.124 29.9784 44.4756V46.8398C29.9843 47.0156 30.0634 47.1094 30.2157 47.1211V48C29.9052 48 29.6474 47.9004 29.4423 47.7012C29.2079 47.8945 28.8974 47.9941 28.5106 48V47.1299C28.5692 47.1299 28.6249 47.124 28.6776 47.1123C28.9413 47.0537 29.0731 46.8838 29.0731 46.6025V45.7324C28.9325 45.8086 28.6864 45.8936 28.3349 45.9873C27.831 46.1221 27.5556 46.207 27.5087 46.2422C27.4442 46.2891 27.4091 46.3711 27.4032 46.4883V46.6729C27.4091 46.9717 27.6288 47.124 28.0624 47.1299V48C27.6815 48 27.3534 47.9004 27.078 47.7012C26.7616 47.4727 26.6034 47.1943 26.6034 46.8662ZM26.6737 44.3438C26.6737 44.0566 26.788 43.7959 27.0165 43.5615C27.3095 43.2686 27.6581 43.1221 28.0624 43.1221V43.9834C27.9979 43.9834 27.9335 43.9951 27.869 44.0186C27.6112 44.1064 27.4823 44.3174 27.4823 44.6514L26.6737 44.3438ZM31.2985 48V43.1309H32.2478V43.7373C32.4118 43.4795 32.6579 43.2949 32.986 43.1836C33.1384 43.1309 33.2878 43.1045 33.4343 43.1045H33.6628L33.4431 44.0273C33.0974 44.0332 32.7956 44.2002 32.5378 44.5283C32.3444 44.7803 32.2478 45.041 32.2478 45.3105V48H31.2985ZM34.4819 46.8662V46.4355C34.4878 46.0547 34.6431 45.7734 34.9478 45.5918C35.0298 45.5449 35.3755 45.4277 35.9849 45.2402C36.6294 45.041 36.9517 44.8652 36.9517 44.7129V44.5283C36.9517 44.4521 36.937 44.3789 36.9077 44.3086C36.8198 44.0918 36.644 43.9834 36.3804 43.9834V43.1221C36.8022 43.1221 37.1538 43.2598 37.4351 43.5352C37.7163 43.8105 37.8569 44.124 37.8569 44.4756V46.8398C37.8628 47.0156 37.9419 47.1094 38.0942 47.1211V48C37.7837 48 37.5259 47.9004 37.3208 47.7012C37.0864 47.8945 36.7759 47.9941 36.3892 48V47.1299C36.4478 47.1299 36.5034 47.124 36.5562 47.1123C36.8198 47.0537 36.9517 46.8838 36.9517 46.6025V45.7324C36.811 45.8086 36.5649 45.8936 36.2134 45.9873C35.7095 46.1221 35.4341 46.207 35.3872 46.2422C35.3228 46.2891 35.2876 46.3711 35.2817 46.4883V46.6729C35.2876 46.9717 35.5073 47.124 35.9409 47.1299V48C35.5601 48 35.2319 47.9004 34.9565 47.7012C34.6401 47.4727 34.4819 47.1943 34.4819 46.8662ZM34.5522 44.3438C34.5522 44.0566 34.6665 43.7959 34.895 43.5615C35.188 43.2686 35.5366 43.1221 35.9409 43.1221V43.9834C35.8765 43.9834 35.812 43.9951 35.7476 44.0186C35.4897 44.1064 35.3608 44.3174 35.3608 44.6514L34.5522 44.3438ZM39.1683 47.9912V41.8477H42.3675V42.8145H40.1526V44.4492H41.5413V45.4336H40.1526V47.9912H39.1683ZM43.4151 46.6729V44.4492C43.4151 44.1621 43.544 43.8838 43.8019 43.6143C44.1065 43.292 44.4903 43.1309 44.9532 43.1309V44.0361C44.6485 44.0361 44.4522 44.1621 44.3644 44.4141C44.3468 44.4668 44.338 44.5195 44.338 44.5723V46.5498C44.338 46.7725 44.4405 46.9336 44.6456 47.0332C44.7394 47.0801 44.8448 47.1035 44.962 47.1035V48.0088C44.3937 48.0088 43.9542 47.7803 43.6437 47.3232C43.4913 47.0947 43.4151 46.8779 43.4151 46.6729ZM45.3487 48.0088V47.1035C45.63 47.1035 45.8146 46.9834 45.9024 46.7432C45.9259 46.6787 45.9376 46.6201 45.9376 46.5674V44.5723C45.9376 44.3262 45.8233 44.1621 45.5948 44.0801C45.5187 44.0508 45.4337 44.0361 45.3399 44.0361V43.1309C45.8907 43.1309 46.3155 43.3535 46.6144 43.7988C46.7667 44.0273 46.8429 44.2441 46.8429 44.4492V46.6729C46.8429 46.96 46.7198 47.2412 46.4737 47.5166C46.1749 47.8389 45.7999 48.0029 45.3487 48.0088ZM47.996 48V43.1309H48.9452V43.7373C49.1093 43.4795 49.3554 43.2949 49.6835 43.1836C49.8358 43.1309 49.9853 43.1045 50.1317 43.1045H50.3603L50.1405 44.0273C49.7948 44.0332 49.4931 44.2002 49.2353 44.5283C49.0419 44.7803 48.9452 45.041 48.9452 45.3105V48H47.996ZM51.0651 44.0625V43.1572H51.6628V41.751H52.5944V43.1572H53.1745V44.0713H52.5944L52.6032 46.5059C52.6149 46.8574 52.7907 47.0361 53.1306 47.042H53.3151L53.5261 48H53.113C52.3688 48 51.9147 47.7158 51.7507 47.1475C51.6921 46.9424 51.6628 46.6992 51.6628 46.418V44.0625H51.0651ZM54.4067 48V43.1309H55.356V43.7373C55.52 43.4795 55.7661 43.2949 56.0942 43.1836C56.2466 43.1309 56.396 43.1045 56.5425 43.1045H56.771L56.5513 44.0273C56.2056 44.0332 55.9038 44.2002 55.646 44.5283C55.4526 44.7803 55.356 45.041 55.356 45.3105V48H54.4067ZM57.6692 46.6729V44.4404C57.681 44.1533 57.8128 43.875 58.0647 43.6055C58.3753 43.2949 58.7503 43.1367 59.1897 43.1309V44.0098C58.9612 44.0098 58.7884 44.1123 58.6712 44.3174C58.6302 44.3877 58.6097 44.4521 58.6097 44.5107V45.0381H60.2796V44.5195C60.2796 44.2734 60.1448 44.1123 59.8753 44.0361C59.7991 44.0127 59.7229 44.001 59.6468 44.001V43.1309C60.0628 43.1309 60.4319 43.2744 60.7542 43.5615C61.0237 43.8193 61.1614 44.1094 61.1673 44.4316V45.9434H58.6097V46.6729C58.6097 46.8252 58.6946 46.9512 58.8645 47.0508C58.97 47.1094 59.0843 47.1387 59.2073 47.1387V48C58.6624 48 58.2317 47.7803 57.9153 47.3408C57.7513 47.1006 57.6692 46.8779 57.6692 46.6729ZM59.6468 48V47.1299C59.9866 47.1299 60.221 46.9863 60.3499 46.6992C60.3675 46.6582 60.3821 46.6201 60.3938 46.585L61.1761 46.8662C61.0706 47.2646 60.8333 47.5723 60.4642 47.7891C60.2122 47.9297 59.9397 48 59.6468 48ZM62.1358 46.7168L63.006 46.5586C63.006 46.7871 63.1261 46.96 63.3663 47.0771C63.4718 47.1299 63.5743 47.1562 63.6739 47.1562V48.0439C63.0528 48.0439 62.6046 47.8242 62.3292 47.3848C62.2003 47.1738 62.1358 46.9512 62.1358 46.7168ZM62.1798 44.4844C62.1798 43.9453 62.4288 43.5439 62.9269 43.2803C63.1671 43.1572 63.4073 43.0957 63.6476 43.0957V43.9658C63.3663 43.9658 63.1788 44.0771 63.0851 44.2998C63.0616 44.3643 63.0499 44.4258 63.0499 44.4844C63.0499 44.6602 63.2022 44.8154 63.5069 44.9502C63.7647 45.0557 64.1573 45.1699 64.6847 45.293C65.089 45.375 65.3761 45.583 65.546 45.917C65.6339 46.0986 65.6778 46.2979 65.6778 46.5146C65.6778 47.0947 65.4435 47.5225 64.9747 47.7979C64.7052 47.9619 64.3976 48.0439 64.0519 48.0439V47.165C64.2862 47.165 64.4796 47.0859 64.6319 46.9277C64.7257 46.8164 64.7726 46.6934 64.7726 46.5586C64.7726 46.3535 64.544 46.1807 64.087 46.04C63.9933 46.0107 63.8468 45.9697 63.6476 45.917C63.3487 45.8467 63.1378 45.7881 63.0147 45.7412C62.5812 45.5479 62.3175 45.2637 62.2237 44.8887C62.1944 44.7656 62.1798 44.6309 62.1798 44.4844ZM64.0431 43.9658V43.0957C64.5587 43.0957 64.9747 43.2861 65.2911 43.667C65.4903 43.9131 65.5899 44.1709 65.5899 44.4404L64.7198 44.5898C64.7198 44.291 64.5587 44.0947 64.2364 44.001C64.1661 43.9775 64.1017 43.9658 64.0431 43.9658ZM66.4794 46.7168L67.3495 46.5586C67.3495 46.7871 67.4696 46.96 67.7099 47.0771C67.8153 47.1299 67.9179 47.1562 68.0175 47.1562V48.0439C67.3964 48.0439 66.9481 47.8242 66.6728 47.3848C66.5438 47.1738 66.4794 46.9512 66.4794 46.7168ZM66.5233 44.4844C66.5233 43.9453 66.7724 43.5439 67.2704 43.2803C67.5106 43.1572 67.7509 43.0957 67.9911 43.0957V43.9658C67.7099 43.9658 67.5224 44.0771 67.4286 44.2998C67.4052 44.3643 67.3935 44.4258 67.3935 44.4844C67.3935 44.6602 67.5458 44.8154 67.8505 44.9502C68.1083 45.0557 68.5009 45.1699 69.0282 45.293C69.4325 45.375 69.7196 45.583 69.8895 45.917C69.9774 46.0986 70.0214 46.2979 70.0214 46.5146C70.0214 47.0947 69.787 47.5225 69.3183 47.7979C69.0487 47.9619 68.7411 48.0439 68.3954 48.0439V47.165C68.6298 47.165 68.8231 47.0859 68.9755 46.9277C69.0692 46.8164 69.1161 46.6934 69.1161 46.5586C69.1161 46.3535 68.8876 46.1807 68.4306 46.04C68.3368 46.0107 68.1903 45.9697 67.9911 45.917C67.6923 45.8467 67.4813 45.7881 67.3583 45.7412C66.9247 45.5479 66.661 45.2637 66.5673 44.8887C66.538 44.7656 66.5233 44.6309 66.5233 44.4844ZM68.3866 43.9658V43.0957C68.9022 43.0957 69.3183 43.2861 69.6347 43.667C69.8339 43.9131 69.9335 44.1709 69.9335 44.4404L69.0634 44.5898C69.0634 44.291 68.9022 44.0947 68.58 44.001C68.5097 43.9775 68.4452 43.9658 68.3866 43.9658Z" fill="white"/>
<defs>
<radialGradient id="paint0_angular_0_1" cx="0" cy="0" r="1" gradientUnits="userSpaceOnUse" gradientTransform="translate(40 40) rotate(61.2797) scale(41.6203)">
<stop offset="0.16"/>
<stop offset="0.83" stop-color="#A9C4FF"/>
</radialGradient>
<radialGradient id="paint1_angular_0_1" cx="0" cy="0" r="1" gradientUnits="userSpaceOnUse" gradientTransform="translate(41.8093 35.5056) rotate(109.591) scale(41.054 37.9518)">
<stop offset="0.03" stop-color="#0A0707"/>
<stop offset="0.915" stop-color="#357FD3"/>
</radialGradient>
<radialGradient id="paint2_angular_0_1" cx="0" cy="0" r="1" gradientUnits="userSpaceOnUse" gradientTransform="translate(61.5 39) rotate(-164.745) scale(74.1114)">
<stop offset="0.204779"/>
<stop offset="0.431439" stop-color="#2DB8FE"/>
<stop offset="0.661092" stop-color="#2DB9FF"/>
</radialGradient>
<radialGradient id="paint3_angular_0_1" cx="0" cy="0" r="1" gradientUnits="userSpaceOnUse" gradientTransform="translate(18.5 39) rotate(21.8014) scale(80.7775)">
<stop offset="0.186261"/>
<stop offset="0.953697" stop-color="#2DB9FF"/>
</radialGradient>
</defs>
</svg>
